<svg xmlns="http://www.w3.org/2000/svg" xmlns:xlink="http://www.w3.org/1999/xlink" width="1281.976" height="655.584" viewBox="0 0 1281.976 655.584"><defs><filter id="Path_7513" width="61.401" height="19.738" x="88.288" y="269.656" filterUnits="userSpaceOnUse"><feOffset/><feGaussianBlur result="blur" stdDeviation="1"/><feFlood flood-color="#2ebac6" flood-opacity=".6"/><feComposite in2="blur" operator="in"/><feComposite in="SourceGraphic"/></filter><filter id="Path_7514" width="30.46" height="13.807" x="258.536" y="256.786" filterUnits="userSpaceOnUse"><feOffset/><feGaussianBlur result="blur-2" stdDeviation="1"/><feFlood flood-color="#2ebac6" flood-opacity=".6"/><feComposite in2="blur-2" operator="in"/><feComposite in="SourceGraphic"/></filter><filter id="Path_7515" width="98.03" height="50.474" x="127.434" y="360.586" filterUnits="userSpaceOnUse"><feOffset/><feGaussianBlur result="blur-3" stdDeviation="1"/><feFlood flood-color="#2ebac6" flood-opacity=".6"/><feComposite in2="blur-3" operator="in"/><feComposite in="SourceGraphic"/></filter><filter id="Path_7516" width="23.305" height="13.5" x="374.684" y="246.533" filterUnits="userSpaceOnUse"><feOffset/><feGaussianBlur result="blur-4" stdDeviation="1"/><feFlood flood-color="#2ebac6" flood-opacity=".6"/><feComposite in2="blur-4" operator="in"/><feComposite in="SourceGraphic"/></filter><filter id="Path_7517" width="86.222" height="69.315" x="131.091" y="499.046" filterUnits="userSpaceOnUse"><feOffset/><feGaussianBlur result="blur-5" stdDeviation="1"/><feFlood flood-color="#2ebac6" flood-opacity=".6"/><feComposite in2="blur-5" operator="in"/><feComposite in="SourceGraphic"/></filter><filter id="Path_7518" width="17.938" height="29.578" x="560.224" y="321.669" filterUnits="userSpaceOnUse"><feOffset/><feGaussianBlur result="blur-6" stdDeviation="1"/><feFlood flood-color="#2ebac6" flood-opacity=".6"/><feComposite in2="blur-6" operator="in"/><feComposite in="SourceGraphic"/></filter><filter id="Path_7519" width="33.52" height="28.23" x="459.843" y="282.56" filterUnits="userSpaceOnUse"><feOffset/><feGaussianBlur result="blur-7" stdDeviation="1"/><feFlood flood-color="#2ebac6" flood-opacity=".6"/><feComposite in2="blur-7" operator="in"/><feComposite in="SourceGraphic"/></filter><filter id="Path_7531" width="33.52" height="28.23" x="349.843" y="368.56" filterUnits="userSpaceOnUse"><feOffset/><feGaussianBlur result="blur-8" stdDeviation="1"/><feFlood flood-color="#2ebac6" flood-opacity=".6"/><feComposite in2="blur-8" operator="in"/><feComposite in="SourceGraphic"/></filter><filter id="Path_7520" width="50.847" height="107.685" x="454.569" y="492.792" filterUnits="userSpaceOnUse"><feOffset/><feGaussianBlur result="blur-9" stdDeviation="1"/><feFlood flood-color="#2ebac6" flood-opacity=".6"/><feComposite in2="blur-9" operator="in"/><feComposite in="SourceGraphic"/></filter><filter id="Path_7521" width="12.573" height="18.07" x="684.896" y="277.102" filterUnits="userSpaceOnUse"><feOffset/><feGaussianBlur result="blur-10" stdDeviation="1"/><feFlood flood-color="#b6509e" flood-opacity=".6"/><feComposite in2="blur-10" operator="in"/><feComposite in="SourceGraphic"/></filter><filter id="Path_7522" width="35.423" height="71.619" x="736.245" y="397.49" filterUnits="userSpaceOnUse"><feOffset/><feGaussianBlur result="blur-11" stdDeviation="1"/><feFlood flood-color="#b6509e" flood-opacity=".6"/><feComposite in2="blur-11" operator="in"/><feComposite in="SourceGraphic"/></filter><filter id="Path_7523" width="30.237" height="25.604" x="817.29" y="304.808" filterUnits="userSpaceOnUse"><feOffset/><feGaussianBlur result="blur-12" stdDeviation="1"/><feFlood flood-color="#b6509e" flood-opacity=".6"/><feComposite in2="blur-12" operator="in"/><feComposite in="SourceGraphic"/></filter><filter id="Path_7524" width="21.976" height="15.025" x="787.675" y="234.528" filterUnits="userSpaceOnUse"><feOffset/><feGaussianBlur result="blur-13" stdDeviation="1"/><feFlood flood-color="#b6509e" flood-opacity=".6"/><feComposite in2="blur-13" operator="in"/><feComposite in="SourceGraphic"/></filter><filter id="Path_7525" width="81.841" height="43.426" x="977.362" y="323.516" filterUnits="userSpaceOnUse"><feOffset/><feGaussianBlur result="blur-14" stdDeviation="1"/><feFlood flood-color="#b6509e" flood-opacity=".6"/><feComposite in2="blur-14" operator="in"/><feComposite in="SourceGraphic"/></filter><filter id="Path_7526" width="65.07" height="28.129" x="935.17" y="263.368" filterUnits="userSpaceOnUse"><feOffset/><feGaussianBlur result="blur-15" stdDeviation="1"/><feFlood flood-color="#b6509e" flood-opacity=".6"/><feComposite in2="blur-15" operator="in"/><feComposite in="SourceGraphic"/></filter><filter id="Path_7527" width="18.125" height="10.972" x="1052.654" y="251.817" filterUnits="userSpaceOnUse"><feOffset/><feGaussianBlur result="blur-16" stdDeviation="1"/><feFlood flood-color="#b6509e" flood-opacity=".6"/><feComposite in2="blur-16" operator="in"/><feComposite in="SourceGraphic"/></filter><filter id="Path_7530" width="52.778" height="23.322" x="1176.067" y="344.776" filterUnits="userSpaceOnUse"><feOffset/><feGaussianBlur result="blur-17" stdDeviation="1"/><feFlood flood-color="#b6509e" flood-opacity=".6"/><feComposite in2="blur-17" operator="in"/><feComposite in="SourceGraphic"/></filter><filter id="Path_7528" width="56.202" height="46.185" x="968.367" y="423.018" filterUnits="userSpaceOnUse"><feOffset/><feGaussianBlur result="blur-18" stdDeviation="1"/><feFlood flood-color="#b6509e" flood-opacity=".6"/><feComposite in2="blur-18" operator="in"/><feComposite in="SourceGraphic"/></filter><filter id="Path_7529" width="57.382" height="46.384" x="1119.185" y="541.817" filterUnits="userSpaceOnUse"><feOffset/><feGaussianBlur result="blur-19" stdDeviation="1"/><feFlood flood-color="#b6509e" flood-opacity=".6"/><feComposite in2="blur-19" operator="in"/><feComposite in="SourceGraphic"/></filter><linearGradient id="linear-gradient" x1=".504" x2=".5" y1=".13" y2="1" gradientUnits="objectBoundingBox"><stop offset="0" stop-color="#fff"/><stop offset="1" stop-color="#fff" stop-opacity="0"/></linearGradient><linearGradient id="linear-gradient-2" x1=".832" x2=".227" y1=".188" y2="1.287" gradientUnits="objectBoundingBox"><stop offset="0" stop-color="#b6509e"/><stop offset="1" stop-color="#2ebac6"/></linearGradient><linearGradient id="linear-gradient-3" x1=".833" x2=".245" y1=".19" y2="1.288" xlink:href="#linear-gradient-2"/><linearGradient id="linear-gradient-4" x1=".851" x2=".201" y1=".208" y2="1.305" xlink:href="#linear-gradient-2"/><linearGradient id="linear-gradient-5" x1=".677" x2=".361" y1=".272" y2="1.167" xlink:href="#linear-gradient-2"/><linearGradient id="linear-gradient-6" x1=".829" x2=".147" y1="-6.601" y2="13.365" xlink:href="#linear-gradient-2"/><style>.cls-1,.cls-4,.cls-5,.cls-6{fill:none;stroke-linecap:round}.cls-1,.cls-4{stroke:#e1e1e1}.cls-3{fill:#fff}.cls-4{stroke-dasharray:7}.cls-5,.cls-6{stroke:#2ebac6;stroke-width:2px}.cls-6{stroke:#b6509e}.cls-11{fill:#f4f4f4}</style></defs><g id="Group_19145" transform="translate(1.493 -345)"><g id="Grid" transform="translate(-1 226)"><path id="Path_7473" d="M6162.309-11509.027l72.04 7.355" class="cls-1" transform="translate(-4954 11854)"/><path id="Path_7484" d="M6234.348-11509.027l-72.04 7.355" class="cls-1" transform="translate(-6161.666 11854)"/><path id="Path_7462" d="M5619.088-11509.029l166.99 392.215" class="cls-1" transform="translate(-4954 11854)"/><path id="Path_7487" d="M5786.078-11509.029l-166.99 392.215" class="cls-1" transform="translate(-5170.176 11854)"/><path id="Path_7463" d="M5668.533-11509.029l501.061 392.68" class="cls-1" transform="translate(-4954 11854)"/><path id="Path_7486" d="M6169.594-11509.029l-501.061 392.68" class="cls-1" transform="translate(-5603.137 11854)"/><path id="Path_7464" d="M5718.091-11509l516.01 242.534" class="cls-1" transform="translate(-4954 11854)"/><path id="Path_7475" d="M6234.1-11509l-516.01 242.534" class="cls-1" transform="translate(-5717.203 11854)"/><path id="Path_7465" d="M5767.409-11509.029l466.5 156.667" class="cls-1" transform="translate(-4954 11854)"/><path id="Path_7476" d="M6233.908-11509.029l-466.5 156.667" class="cls-1" transform="translate(-5766.326 11854)"/><path id="Path_7466" d="M6234-11400.2l-417.594-108.9" class="cls-1" transform="translate(-4954 11854)"/><path id="Path_7477" d="M5816.406-11400.2L6234-11509.1" class="cls-1" transform="translate(-5815.416 11854)"/><path id="Path_7467" d="M5867.087-11509.1l366.5 78.984" class="cls-1" transform="translate(-4954 11854)"/><path id="Path_7478" d="M6233.59-11509.1l-366.5 78.984" class="cls-1" transform="translate(-5865.688 11854)"/><path id="Path_7468" d="M5916.585-11509.1l318.317 57.212" class="cls-1" transform="translate(-4954 11854)"/><path id="Path_7479" d="M6234.9-11509.1l-318.317 57.212" class="cls-1" transform="translate(-5916.497 11854)"/><path id="Path_7469" d="M5965.729-11509.1l268.552 42.376" class="cls-1" transform="translate(-4954 11854)"/><path id="Path_7480" d="M6234.281-11509.1l-268.552 42.376" class="cls-1" transform="translate(-5965.02 11854)"/><path id="Path_7470" d="M6015.2-11509l219.578 30.383" class="cls-1" transform="translate(-4954 11854)"/><path id="Path_7481" d="M6234.782-11509l-219.578 30.383" class="cls-1" transform="translate(-6014.995 11854)"/><path id="Path_7471" d="M6064.727-11509.121l169.891 21.164" class="cls-1" transform="translate(-4954 11854)"/><path id="Path_7482" d="M6234.617-11509.121l-169.891 21.164" class="cls-1" transform="translate(-6064.354 11854)"/><path id="Path_7472" d="M6112.791-11509.144l121.56 13.611" class="cls-1" transform="translate(-4954 11854)"/><path id="Path_7483" d="M6234.352-11509.144l-121.56 13.611" class="cls-1" transform="translate(-6112.152 11854)"/><path id="Line_1" d="M0 0h1280" class="cls-1" transform="translate(.5 709.5)"/><path id="Line_2" d="M0 0h1280" class="cls-1" transform="translate(.5 656.5)"/><path id="Line_3" d="M0 0h1280" class="cls-1" transform="translate(.5 609.5)"/><path id="Line_4" d="M0 0h1280" class="cls-1" transform="translate(.5 568.5)"/><path id="Line_5" d="M0 0h1280" class="cls-1" transform="translate(.5 532.5)"/><path id="Line_6" d="M0 0h1280" class="cls-1" transform="translate(.5 501.5)"/><path id="Line_7" d="M0 0h1280" class="cls-1" transform="translate(.5 474.5)"/><path id="Line_8" d="M0 0h1280" class="cls-1" transform="translate(.5 451.5)"/><path id="Line_9" d="M0 0h1280" class="cls-1" transform="translate(.5 431.5)"/><path id="Line_10" d="M0 0h1280" class="cls-1" transform="translate(.5 415.5)"/><path id="Line_11" d="M0 0h1280" class="cls-1" transform="translate(.5 401.5)"/><path id="Line_12" d="M0 0h1280" class="cls-1" transform="translate(.5 389.5)"/><path id="Line_13" d="M0 0h1280" class="cls-1" transform="translate(.5 380.5)"/><path id="Line_14" d="M0 0h1280" class="cls-1" transform="translate(.5 372.5)"/><path id="Line_15" d="M0 0h1280" class="cls-1" transform="translate(.5 366.5)"/><path id="Line_16" d="M0 0h1280" class="cls-1" transform="translate(.5 360.5)"/><path id="Line_17" d="M0 0h1280" class="cls-1" transform="translate(.5 354.5)"/><path id="Line_18" d="M0 0h1280" class="cls-1" transform="translate(.5 349.5)"/><path id="Line_19" d="M0 0h1280" class="cls-1" transform="translate(.5 344.5)"/><path id="Path_7488" fill="url(#linear-gradient)" d="M1280-5.143V89.99C1280 139.7 992.133 180 639.144 180S0 139.706 0 90V-4.8c116.631 0 1217.11-.343 1280-.343z" transform="translate(0 349)"/><path id="Rectangle_4199" d="M0 0h178v12H0z" class="cls-3" transform="translate(297 604)"/><path id="Rectangle_4204" d="M0 0h149v12H0z" class="cls-3" transform="translate(1131 604)"/><path id="Rectangle_4200" d="M0 0h178v12H0z" class="cls-3" transform="translate(91 560)"/><path id="Rectangle_4205" d="M0 0h178v12H0z" class="cls-3" transform="translate(802 560)"/><path id="Rectangle_4211" d="M0 0h178v12H0z" class="cls-3" transform="translate(824 704)"/><path id="Rectangle_4212" d="M0 0h301v12H0z" class="cls-3" transform="translate(523 704)"/><path id="Rectangle_4209" d="M0 0h224v12H0z" class="cls-3" transform="translate(660 651)"/><path id="Rectangle_4210" d="M0 0h113v12H0z" class="cls-3" transform="rotate(68 -83.341 925.754)"/><path id="Rectangle_4213" d="M0 0h41v12H0z" class="cls-3" transform="rotate(138 -87.943 379.71)"/><path id="Rectangle_4214" d="M0 0h41v4H0z" class="cls-3" transform="rotate(38 -440.9 2076.42)"/><path id="Rectangle_4215" d="M0 0h63v4H0z" class="cls-3" transform="rotate(38 -359.357 1842.727)"/><path id="Path_7505" d="M-.762 1.531l63.841-.414-4.937 2.408-64.7.834z" class="cls-3" transform="rotate(25.97 -535.668 2647.46)"/><path id="Rectangle_4218" d="M0 0h23v4H0z" class="cls-3" transform="rotate(67.98 8.552 774.94)"/><path id="Rectangle_4201" d="M0 0h122v12H0z" class="cls-3" transform="translate(0 651)"/><path id="Rectangle_4202" d="M0 0h90v12H0z" class="cls-3" transform="translate(389 491)"/><path id="Rectangle_4203" d="M0 0h90v12H0z" class="cls-3" transform="translate(580 468)"/><path id="Rectangle_4206" d="M0 0h90v12H0z" class="cls-3" transform="translate(1190 495)"/><path id="Rectangle_4207" d="M0 0h90v12H0z" class="cls-3" transform="translate(1190 448)"/><path id="Rectangle_4208" d="M0 0h82v9H0z" class="cls-3" transform="translate(0 448)"/></g><g id="Grid_2" transform="translate(-1 226)"><path id="Path_7490" d="M5484.5-11185.368h-64.45" class="cls-4" transform="translate(-4889 11894.797)"/><path id="Path_7491" d="M5484.5-11185.368h-64.45" class="cls-4" transform="translate(-4754 11841.797)"/><path id="Path_7492" d="M5500.382-11184.466h-80.332" class="cls-4" transform="translate(-5027 11685.895)"/><path id="Path_7493" d="M5500.382-11184.466h-80.332" class="cls-4" transform="translate(-4837 11658.895)"/><path id="Path_7494" d="M5483.553-11184.026h-63.5" class="cls-4" transform="translate(-4613 11752.455)"/><path id="Path_7495" d="M5483.553-11184.026h-63.5" class="cls-4" transform="translate(-4279 11793.455)"/><path id="Path_7503" d="M5483.553-11184.026h-63.5" class="cls-4" transform="translate(-4490 11893.455)"/><path id="Path_7496" d="M5457.938-11184.026h-37.888" class="cls-4" transform="translate(-4227 11635.455)"/><path id="Path_7497" d="M5457.938-11184.026h-37.888" class="cls-4" transform="translate(-4227 11685.455)"/><path id="Path_7498" d="M5457.938-11184.026h-37.888" class="cls-4" transform="translate(-5384 11635.455)"/><path id="Path_7499" d="M5457.938-11184.026h-37.888" class="cls-4" transform="translate(-5322 11752.455)"/><path id="Path_7501" d="M5457.938-11184.026h-37.888" class="cls-4" transform="translate(-5194 11752.455)"/><path id="Path_7502" d="M5457.938-11184.026h-37.888" class="cls-4" transform="translate(-5118 11793.455)"/><path id="Path_7512" d="M5457.938-11184.026h-24.17" class="cls-4" transform="translate(-4991 11793.455)"/><path id="Path_7500" d="M5471.162-11184.026h-51.112" class="cls-4" transform="translate(-5358.225 11840.324)"/><path id="Path_7504" d="M5731.8-11285.161l15.208 34.75" class="cls-4" transform="translate(-4934 11942)"/><path id="Path_7506" d="M6011.132-11412.139l34.038 15.948" class="cls-4" transform="translate(-4907 11917)"/><path id="Path_7507" d="M5671.514-11426.93l-4.158-9.717" class="cls-4" transform="translate(-4946 11915)"/><path id="Path_7508" d="M6061.24-11242.313l30.408 23.887" class="cls-4" transform="translate(-4987 11869)"/><path id="Path_7509" d="M6061.24-11242.313l30.408 23.887" class="cls-4" transform="translate(-4872 11959)"/><path id="Path_7510" d="M5402.886-11158.072l12.924-30.056" class="cls-4" transform="translate(-4970 11932)"/><path id="Path_7511" d="M5049.1-11180.83l30.57-24.1" class="cls-4" transform="translate(-4987 11921)"/></g><g id="Rays" transform="translate(-1.49 345)"><g id="Blue_Rays"><g filter="url(#Path_7513)"><path id="Path_7513-2" d="M5045.983-11490.793l53.026-11.363" class="cls-5" transform="translate(-4953.51 11776)"/></g><g filter="url(#Path_7514)"><path id="Path_7514-2" d="M5216.251-11509.616l22.043-5.389" class="cls-5" transform="translate(-4953.51 11776)"/></g><g filter="url(#Path_7515)"><path id="Path_7515-2" d="M5085.271-11369.27l89.371-41.815" class="cls-5" transform="translate(-4953.51 11776)"/></g><g filter="url(#Path_7516)"><path id="Path_7516-2" d="M5332.458-11520.233l14.772-4.967" class="cls-5" transform="translate(-4953.51 11776)"/></g><g filter="url(#Path_7517)"><path id="Path_7517-2" d="M5089-11212.043l77.415-60.507" class="cls-5" transform="translate(-4953.51 11776)"/></g><g filter="url(#Path_7518)"><path id="Path_7518-2" d="M5518.051-11429.073l9.3-20.937" class="cls-5" transform="translate(-4953.51 11776)"/></g><g filter="url(#Path_7519)"><path id="Path_7519-2" d="M5442.466-11489.036l-24.712 19.422" class="cls-5" transform="translate(-4953.51 11776)"/></g><g filter="url(#Path_7531)"><path id="Path_7531-2" d="M5442.466-11489.036l-24.712 19.422" class="cls-5" transform="translate(-5063.51 11862)"/></g><g filter="url(#Path_7520)"><path id="Path_7520-2" d="M5412.388-11179.836l42.223-99.06" class="cls-5" transform="translate(-4953.51 11776)"/></g></g><g id="Purple_Rays"><g filter="url(#Path_7521)"><path id="Path_7521-2" d="M5642.711-11494.59l3.956 9.453" class="cls-6" transform="translate(-4953.51 11776)"/></g><g filter="url(#Path_7522)"><path id="Path_7522-2" d="M5720.863-11311.2l-26.8-63" class="cls-6" transform="translate(-4953.51 11776)"/></g><g filter="url(#Path_7523)"><path id="Path_7523-2" d="M5775.2-11466.788l21.43 16.795" class="cls-6" transform="translate(-4953.51 11776)"/></g><g filter="url(#Path_7524)"><path id="Path_7524-2" d="M5745.516-11537.139l13.309 6.359" class="cls-6" transform="translate(-4953.51 11776)"/></g><g filter="url(#Path_7525)"><path id="Path_7525-2" d="M5935.2-11448.152l73.176 34.762" class="cls-6" transform="translate(-4953.51 11776)"/></g><g filter="url(#Path_7526)"><path id="Path_7526-2" d="M5892.949-11508.359l56.526 19.584" class="cls-6" transform="translate(-4953.51 11776)"/></g><g filter="url(#Path_7527)"><path id="Path_7527-2" d="M6020.066-11517.432l-9.685-2.53" class="cls-6" transform="translate(-4953.51 11776)"/></g><g filter="url(#Path_7530)"><path id="Path_7530-2" d="M6020.087-11517.167l-44.248-14.791" class="cls-6" transform="translate(-4795.51 11881)"/></g><g filter="url(#Path_7528)"><path id="Path_7528-2" d="M5973.672-11311.2l-47.393-37.376" class="cls-6" transform="translate(-4953.51 11776)"/></g><g filter="url(#Path_7529)"><path id="Path_7529-2" d="M5973.672-11311.2l-48.577-37.577" class="cls-6" transform="translate(-4801.51 11895)"/></g></g></g><path id="Ring_3" fill="url(#linear-gradient-2)" d="M330.482 219H7.519a169 169 0 11322.963 0z" opacity=".2" transform="translate(475 345)"/><path id="Ring_2" fill="url(#linear-gradient-3)" d="M312.585 202H25.415a152 152 0 11287.17 0z" opacity=".3" transform="translate(475 362)"/><path id="Ring_1" fill="url(#linear-gradient-4)" d="M296.589 187H41.411A136.36 136.36 0 0132 137a138.011 138.011 0 012.783-27.61A136.248 136.248 0 0155.4 60.4a137.4 137.4 0 0160.276-49.636 136.309 136.309 0 0125.714-7.981 138.335 138.335 0 0155.221 0A136.248 136.248 0 01245.6 23.4a137.4 137.4 0 0149.636 60.276 136.31 136.31 0 017.983 25.716A138.011 138.011 0 01306 137a136.36 136.36 0 01-9.411 50z" opacity=".4" transform="translate(475 377)"/><path id="Top_Layer" fill="url(#linear-gradient-5)" d="M3.5 178.313a3.5 3.5 0 110-7h179.284a118.987 118.987 0 01-11.637-51.481 120.265 120.265 0 012.444-24.151 118.907 118.907 0 0118.1-42.848 120.494 120.494 0 01210.627 20.354 118.906 118.906 0 017.01 22.494 120.459 120.459 0 01-.577 50.954 118.853 118.853 0 01-8.616 24.678h169.283a3.5 3.5 0 010 7z" transform="translate(353 392.673)"/><g id="FlashLoan_Icon" transform="translate(-7613.867 11484.638)"><g id="Group_15621" transform="translate(8213 -11052.098)"><path id="Path_7440" d="M149.916 46.916h-37.3L124.2 2.988a2.371 2.371 0 00-4.1-2.145l-57.885 67.73a2.371 2.371 0 001.8 3.912h37.3l-11.581 43.928a2.371 2.371 0 004.1 2.145l57.889-67.73a2.371 2.371 0 00-1.8-3.912z" class="cls-3" transform="translate(-61.642 -.001)"/><g id="Group_15620" transform="translate(0 .001)"><path id="Path_7440-2" d="M149.916 46.916h-37.3L124.2 2.988a2.371 2.371 0 00-4.1-2.145l-57.885 67.73a2.371 2.371 0 001.8 3.912h37.3l-11.581 43.928a2.371 2.371 0 004.1 2.145l57.889-67.73a2.371 2.371 0 00-1.8-3.912z" class="cls-3" transform="translate(-61.642)"/><g id="Group_15619" transform="translate(28.006)"><path id="Path_7441" d="M257.3 46.917h-4.57a2.4 2.4 0 01-2.323-3.015l10-37.934 4.382-5.125a2.37 2.37 0 014.094 2.145z" class="cls-11" transform="translate(-234.331)"/><path id="Path_7442" d="M243.8 205.1l-57.891 67.729a2.37 2.37 0 01-4.094-2.145l.786-2.979 53.511-62.6a2.371 2.371 0 00-1.8-3.911H242a2.371 2.371 0 011.8 3.906z" class="cls-11" transform="translate(-181.733 -154.268)"/></g></g></g></g><g id="Group_15702" fill="#b6509e" transform="translate(-7610 11686)"><rect id="Rectangle_4219" width="40" height="7" opacity=".8" rx="3.5" transform="translate(8546 -11122)"/><rect id="Rectangle_4220" width="10" height="7" opacity=".6" rx="3.5" transform="translate(8596 -11122)"/><rect id="Rectangle_4221" width="10" height="7" opacity=".3" rx="3.5" transform="translate(8616 -11122)"/></g><g id="Group_15703" fill="#2ebac6" transform="translate(-7610 11686)"><rect id="Rectangle_4224" width="40" height="7" opacity=".8" rx="3.5" transform="rotate(180 3976.5 -5557.5)"/><rect id="Rectangle_4223" width="10" height="7" opacity=".6" rx="3.5" transform="rotate(180 3951.5 -5557.5)"/><rect id="Rectangle_4222" width="10" height="7" opacity=".3" rx="3.5" transform="rotate(180 3941.5 -5557.5)"/></g><rect id="Rectangle_4248" width="200" height="2" fill="url(#linear-gradient-6)" opacity=".8" rx="1" transform="translate(540 573)"/><rect id="Rectangle_4249" width="150" height="2" fill="url(#linear-gradient-6)" opacity=".6" rx="1" transform="translate(565 577)"/><rect id="Rectangle_4250" width="100" height="2" fill="url(#linear-gradient-6)" opacity=".4" rx="1" transform="translate(590 581)"/><rect id="Rectangle_4251" width="50" height="2" fill="url(#linear-gradient-6)" opacity=".2" rx="1" transform="translate(615 585)"/></g></svg>